<svg width="200" height="200" viewBox="0 0 200 200" fill="none" xmlns="http://www.w3.org/2000/svg">
<path d="M171.77 68.269H79.9851V33.1511H154.878C165.396 33.1511 171.771 39.527 171.771 50.043V68.269H171.77Z" fill="#B49AE0"/>
<path d="M143.999 166H86.9013C76.4617 166 68 157.771 68 147.617V51.3825C68 41.2298 76.4617 33 86.9013 33H103.644H106.639H111.654H117.136C127.576 33 133.903 39.1544 133.903 49.3051V59.8912H144L143.999 166Z" fill="#8457CB"/>
<path d="M73.133 31H45.893C35.397 31 29.026 37.3511 29 47.8311V149.786C29.025 160.283 37.541 168.786 48.045 168.786H152.728C163.247 168.786 171.772 160.261 171.772 149.741V68.2681V58.8582H90.026V47.8911C90.026 37.3741 83.65 31 73.133 31Z" fill="url(#paint0_linear_2864_190)"/>
<path d="M100.387 130.544H100.156H99.9251C95.1391 130.548 90.42 130.624 85.786 130.769L83.5661 142.953L74.6861 143.228L57.2021 143.505L49.7011 137.661L50.0901 133.358C42.5881 134.247 35.5261 135.327 29.0021 136.575V151.954C29.0271 162.436 35.3981 168.786 45.8961 168.786H154.88C165.398 168.786 171.773 162.411 171.773 151.891V136.575C151.991 132.79 127.242 130.544 100.387 130.544Z" fill="url(#paint1_linear_2864_190)"/>
<path d="M47.105 59.189C46.532 59.189 46.03 58.687 46.03 58.115V43.1641C46.03 42.5921 46.532 42.0881 47.105 42.0881H72.127C72.699 42.0881 73.202 42.5921 73.202 43.1641V58.115C73.202 58.687 72.699 59.189 72.127 59.189H47.105Z" fill="#3647D3"/>
<path d="M99.37 129.407C99.37 128.077 100.811 127 102.59 127H153.152C154.929 127 156.371 128.077 156.371 129.407V147.671C156.371 149.001 154.93 150.079 153.152 150.079H102.59C100.812 150.079 99.37 149.001 99.37 147.671V129.407ZM99.37 99.8311C99.37 98.5031 100.811 97.425 102.59 97.425H153.152C154.929 97.425 156.371 98.5031 156.371 99.8311V115.944C156.371 117.274 154.93 118.352 153.152 118.352H102.59C100.812 118.352 99.37 117.274 99.37 115.944V99.8311ZM44.047 72.1121C44.047 70.7831 45.488 69.7061 47.266 69.7061H153.509C155.287 69.7061 156.729 70.7831 156.729 72.1121V84.8701C156.729 86.2001 155.288 87.2781 153.509 87.2781H47.265C45.488 87.2781 44.046 86.2001 44.046 84.8701L44.047 72.1121Z" fill="#83E4ED"/>
<path d="M73.2141 111.552L67.46 107.906L53.192 116.16V132.668L67.538 140.135L81.623 132.668V116.629L76.626 113.738L63.085 121.523V128.763L58.269 126.187V119.929L73.2141 111.552ZM46.1281 99.4561C46.1281 98.3721 47.296 97.4932 48.735 97.4932H86.319C87.758 97.4932 88.926 98.3721 88.926 99.4561V148.763C88.926 149.849 87.757 150.728 86.319 150.728H48.735C47.296 150.728 46.1281 149.849 46.1281 148.763V99.4561Z" fill="#83E4ED"/>
<defs>
<linearGradient id="paint0_linear_2864_190" x1="23.2823" y1="79.9127" x2="169.992" y2="138.596" gradientUnits="userSpaceOnUse">
<stop stop-color="#00DBDB"/>
<stop offset="0.702" stop-color="#3647D3"/>
<stop offset="1" stop-color="#3647D3"/>
</linearGradient>
<linearGradient id="paint1_linear_2864_190" x1="27.951" y1="146.105" x2="172.645" y2="155.896" gradientUnits="userSpaceOnUse">
<stop stop-color="#1B2BBB"/>
<stop offset="1" stop-color="#078DDD"/>
</linearGradient>
</defs>
</svg>
